<?xml version="1.0" encoding="UTF-8"?>
<svg width="112px" height="23px" viewBox="0 0 112 23" version="1.1" xmlns="http://www.w3.org/2000/svg" xmlns:xlink="http://www.w3.org/1999/xlink">
    <!-- Generator: Sketch 59.1 (86144) - https://sketch.com -->
    <title>Atoms/Logo/Extended/White/Colour</title>
    <desc>Created with Sketch.</desc>
    <defs>
        <linearGradient x1="12.6842478%" y1="93.882%" x2="101.172774%" y2="39.429%" id="linearGradient-1">
            <stop stop-color="#186131" offset="0%"></stop>
            <stop stop-color="#449741" offset="14.78%"></stop>
            <stop stop-color="#5ABA47" offset="26.6%"></stop>
            <stop stop-color="#5ABA47" offset="46.31%"></stop>
            <stop stop-color="#6ABD45" offset="52.22%"></stop>
            <stop stop-color="#47B649" offset="58.13%"></stop>
            <stop stop-color="#007B7B" offset="75.37%"></stop>
            <stop stop-color="#00404B" offset="100%"></stop>
        </linearGradient>
        <linearGradient x1="41.8886296%" y1="60.818%" x2="58.8479053%" y2="-33.585%" id="linearGradient-2">
            <stop stop-color="#00773C" offset="0%"></stop>
            <stop stop-color="#3BB649" offset="22.674%"></stop>
            <stop stop-color="#6ABD45" offset="54.19%"></stop>
            <stop stop-color="#8BC63F" offset="72.91%"></stop>
            <stop stop-color="#9ECC3B" offset="77.34%"></stop>
            <stop stop-color="#B3D335" offset="80.3%"></stop>
            <stop stop-color="#A7CF3F" offset="84.24%"></stop>
            <stop stop-color="#91C851" offset="100%"></stop>
        </linearGradient>
        <linearGradient x1="92.297%" y1="47.8969464%" x2="8.152%" y2="51.4007823%" id="linearGradient-3">
            <stop stop-color="#192652" offset="0%"></stop>
            <stop stop-color="#008C96" offset="100%"></stop>
        </linearGradient>
        <linearGradient x1="33.8248287%" y1="93.009%" x2="65.4813598%" y2="0.014%" id="linearGradient-4">
            <stop stop-color="#EE2424" offset="0%"></stop>
            <stop stop-color="#F14722" offset="10.18%"></stop>
            <stop stop-color="#F14722" offset="10.18%"></stop>
            <stop stop-color="#F14722" offset="10.18%"></stop>
            <stop stop-color="#F7911E" offset="31.33%"></stop>
            <stop stop-color="#F9A11B" offset="48.139%"></stop>
            <stop stop-color="#F8941C" offset="50.315%"></stop>
            <stop stop-color="#F8941C" offset="50.315%"></stop>
            <stop stop-color="#F8941C" offset="50.315%"></stop>
            <stop stop-color="#F47A20" offset="54.409%"></stop>
            <stop stop-color="#F15D22" offset="57.131%"></stop>
            <stop stop-color="#EF4023" offset="63.948%"></stop>
            <stop stop-color="#ED2024" offset="70.5%"></stop>
            <stop stop-color="#ED2024" offset="86.21%"></stop>
            <stop stop-color="#851619" offset="100%"></stop>
        </linearGradient>
        <linearGradient x1="16.3330187%" y1="92.196%" x2="79.5254608%" y2="12.194%" id="linearGradient-5">
            <stop stop-color="#F15722" offset="0%"></stop>
            <stop stop-color="#F37121" offset="26.11%"></stop>
            <stop stop-color="#F58120" offset="37.188%"></stop>
            <stop stop-color="#E14F25" offset="42.158%"></stop>
            <stop stop-color="#D61F26" offset="49.054%"></stop>
            <stop stop-color="#550F0E" offset="100%"></stop>
        </linearGradient>
    </defs>
    <g id="Header-Mobile-+-Tablet" stroke="none" stroke-width="1" fill="none" fill-rule="evenodd">
        <g id="CB-Header-Tablet_UserNotLogIn_2" transform="translate(-40.000000, -13.000000)">
            <g id="Atoms/Logo/Extended/White/Colour" transform="translate(40.000000, 13.000000)">
                <g id="Colourbox-logo-color-v.2">
                    <g id="colourboxLogo-text" transform="translate(0.000000, 6.322950)" fill="#FFFFFF">
                        <g id="Group">
                            <path d="M3.18508877,3.86651216 C2.87271578,4.56035804 2.69979503,5.3717101 2.6719046,6.28937724 L2.6719046,6.76499739 C2.6719046,6.92726781 2.67748267,7.08953822 2.68863886,7.25740415 C2.7165293,7.59873158 2.78346636,7.93446344 2.87829388,8.26459981 C2.9731214,8.59473615 3.13488597,8.88570377 3.36358762,9.13750268 C3.59786735,9.40049265 3.87119371,9.49002117 4.17798861,9.55716754 C4.48478348,9.61871838 4.80273456,9.65229158 5.12068563,9.65229158 L5.25455975,9.65229158 L8.64045973,9.63550498 L8.64045973,11.5491767 L4.90314016,11.5491767 C4.30628464,11.5491767 3.73174148,11.4932214 3.17951068,11.3869063 C2.62727988,11.2805912 2.10851761,11.0287923 1.61764579,10.6371051 C1.03194645,10.1558894 0.61916787,9.57395413 0.384888135,8.88010825 C0.150608401,8.19185789 0.0223123556,7.48122541 0.00557808891,6.75380633 C-2.2565283e-14,6.60272698 -2.2565283e-14,6.45164765 -2.2565283e-14,6.30616382 C0.00557808891,6.16068001 0.0111561778,6.00960066 0.0223123556,5.86411685 C0.128296045,4.19664851 0.580121248,2.97682267 1.37778796,2.18785275 C2.17545467,1.40447837 3.36916571,1.01279117 4.95892105,1.01279117 L8.63488164,0.99600458 L8.63488164,2.98801375 L5.25455975,2.98801375 C4.18914478,3.00480033 3.49746176,3.17266627 3.18508877,3.86651216 L3.18508877,3.86651216 Z M20.19826,11.521199 L20.19826,0.033573188 L22.7139781,0.033573188 L22.7139781,11.521199 L20.19826,11.521199 Z M41.4396226,9.51240329 L39.2753241,9.51240329 C38.645,9.51240329 38.2824243,9.41727926 38.0369883,9.20464907 C37.7915524,8.99761441 37.6688345,8.58354509 37.6688345,7.96803663 L37.6688345,2.35012316 L35.0973355,2.35012316 L35.0973355,8.18066683 C35.0973355,9.47883011 35.4599112,10.3629241 36.1906409,10.8273532 C36.9157925,11.2917823 37.6409441,11.521199 39.1526062,11.521199 C39.14145,11.521199 41.4396226,11.772998 41.4396226,9.51240329 Z M41.4228884,2.35012316 L41.461935,11.521199 L43.9943873,11.521199 L43.9943873,2.35012316 L41.4228884,2.35012316 Z M50.8889052,2.35012316 C52.194178,2.36131423 52.9527982,2.66347292 53.1591874,3.25659924 C53.3655766,3.84972556 53.4659823,4.64429102 53.4548261,5.64029559 L53.4548261,6.21663533 L51.0004669,6.19984874 L51.0004669,5.81935261 C51.0004669,4.97442736 51.0004669,4.50999827 50.7996558,4.30296361 C50.5988446,4.09592895 48.7692314,4.12950213 47.9325181,4.12950213 L47.675926,4.12950213 L47.675926,11.5267946 L45.2661916,11.5267946 L45.2661916,2.35012316 L50.8889052,2.35012316 L50.8889052,2.35012316 Z M63.7631344,5.38849668 C63.6069479,4.80096589 63.3280435,4.26379488 62.9264211,3.77698366 C62.4411273,3.18385733 61.8721622,2.80336121 61.2139478,2.62989974 C60.5557333,2.45643826 59.8584722,2.36131423 59.1221644,2.35012316 L56.9355535,2.35012316 L56.9355535,0.033573188 L54.4031011,0.033573188 L54.4031011,11.521199 L56.8574604,11.521199 C56.8686166,11.521199 56.8853508,4.33653679 56.8741946,4.33653679 L57.8447821,4.33653679 L57.8447821,4.35332338 C58.3300759,4.35332338 59.4345374,4.42606529 59.8305818,4.52118933 C60.2322041,4.61631337 60.6561389,4.86811228 60.912731,5.33254137 C61.041027,5.53957603 61.1302765,5.76899282 61.1916354,6.00960066 C61.2474164,6.25020851 61.2864629,6.50200742 61.2976191,6.75940187 C61.2976191,6.89929016 61.2920409,7.03917843 61.2864629,7.18466225 C61.2808849,7.33014606 61.2697287,7.47003435 61.2585725,7.60992264 C61.163745,8.65628699 60.7509664,9.17107587 60.0871738,9.40049265 C59.3285537,9.66348264 58.3468101,9.64110052 57.5714557,9.60752731 C57.3929569,9.60193179 57.030381,9.59074073 56.8797727,9.59074073 C56.8797727,11.868122 59.2058357,11.5379856 59.5237869,11.5379856 C60.9573556,11.5379856 61.8331157,11.1351074 62.6363604,10.3629241 C63.4451833,9.59074073 63.8746963,8.5331853 63.9360552,7.18466225 C63.9806798,6.57474933 63.9193209,5.97602748 63.7631344,5.38849668 Z M73.7534917,10.5084079 C73.2681979,10.9504548 72.6824986,11.2749957 71.9963936,11.4820303 C71.3102886,11.689065 70.5460905,11.7114618 69.8209389,11.7114618 C69.0902093,11.7114618 68.320433,11.7170426 67.6399062,11.510008 C66.9593794,11.3029733 66.3792581,10.984028 65.8939643,10.5531721 C65.3975145,10.1111252 65.0907196,9.47323457 64.8397056,8.85772612 C64.5886916,8.24221767 64.4659736,7.60992264 64.4659736,6.96084099 C64.4659736,6.31175936 64.5886916,5.67946432 64.8397056,5.06395588 C65.0907196,4.44844742 65.3807802,3.84972556 65.8772301,3.40767859 C66.3625239,2.97682267 66.9482232,2.65787738 67.6343282,2.43965166 C68.320433,2.22702148 69.1125217,2.18785275 69.8376733,2.18785275 C70.5516687,2.18785275 71.327023,2.19904381 72.0075498,2.41167401 C72.6936548,2.6243042 73.2793541,2.94884502 73.7646479,3.37970093 C74.2610978,3.82174791 74.5678926,4.44844742 74.8189066,5.06395588 C75.0699206,5.67946432 75.1926386,6.31175936 75.1926386,6.96084099 C75.1926386,7.60992264 75.0699206,8.24221767 74.8189066,8.85772612 C74.5678926,9.47323457 74.2499416,10.0831475 73.7534917,10.5251945 L73.7534917,10.5084079 L73.7534917,10.5084079 Z M68.8782419,9.50680775 C68.9730695,9.54038094 69.062319,9.5683586 69.1515683,9.59074073 C69.2408178,9.61312285 69.3244891,9.62990944 69.4025823,9.64110052 C70.0496407,9.71943795 70.6520742,9.61871838 71.2210393,9.33894182 C71.7844262,9.05916525 72.1637363,8.64509592 72.3533913,8.10792492 C72.4203284,7.91767686 72.4705312,7.7106422 72.5039998,7.49241648 C72.5374683,7.27419075 72.5542025,7.05036949 72.5542025,6.82654824 C72.5263121,6.33414149 72.3868599,5.86411685 72.1302677,5.41647435 C71.8736757,4.97442736 71.4664753,4.64988655 70.8975102,4.44844742 C70.7747921,4.40368317 70.6464962,4.37010998 70.5126219,4.34772786 C70.3787478,4.32534573 70.2504518,4.30855913 70.1277338,4.29736807 C69.508566,4.25260382 68.9284447,4.37010998 68.3929482,4.64988655 C67.8518736,4.92966311 67.4892978,5.32694585 67.3052209,5.83054367 C67.2382838,6.02079173 67.188081,6.22223086 67.1546124,6.42926552 C67.1211439,6.63630017 67.1099877,6.84333483 67.126722,7.04477397 C67.1378782,7.57634945 67.2829085,8.07435173 67.5618129,8.53878084 C67.8351393,9.00320993 68.2758083,9.33334628 68.8838201,9.52359436 L68.8838201,9.50680775 L68.8782419,9.50680775 L68.8782419,9.50680775 Z M32.8660998,10.5084079 C32.3808062,10.9504548 31.7951068,11.2749957 31.1090019,11.4820303 C30.422897,11.689065 29.6586988,11.7114618 28.9335472,11.7114618 C28.2028175,11.7114618 27.4330413,11.7170426 26.7525144,11.510008 C26.0719876,11.3029733 25.4918664,10.984028 25.0065727,10.5531721 C24.5101227,10.1111252 24.2033278,9.47323457 23.9523138,8.85772612 C23.7012998,8.24221767 23.5785819,7.60992264 23.5785819,6.96084099 C23.5785819,6.31175936 23.7012998,5.67946432 23.9523138,5.06395588 C24.2033278,4.44844742 24.4933885,3.84972556 24.9898383,3.40767859 C25.4751321,2.97682267 26.0608314,2.65787738 26.7469364,2.43965166 C27.4330413,2.22702148 28.2251299,2.18785275 28.9502814,2.18785275 C29.6642768,2.18785275 30.4396312,2.19904381 31.1201581,2.41167401 C31.806263,2.6243042 32.3919623,2.94884502 32.877256,3.37970093 C33.373706,3.82174791 33.6805009,4.44844742 33.9315149,5.06395588 C34.1825289,5.67946432 34.3052468,6.31175936 34.3052468,6.96084099 C34.3052468,7.60992264 34.1825289,8.24221767 33.9315149,8.85772612 C33.6805009,9.47323457 33.3625498,10.0831475 32.8660998,10.5251945 L32.8660998,10.5084079 L32.8660998,10.5084079 Z M27.9908503,9.50680775 C28.0856778,9.54038094 28.1749271,9.5683586 28.2641766,9.59074073 C28.353426,9.61312285 28.4370973,9.62990944 28.5151906,9.64110052 C29.1622489,9.71943795 29.7646825,9.61871838 30.3336475,9.33894182 C30.8970345,9.05916525 31.2763446,8.64509592 31.4659996,8.10792492 C31.5329366,7.91767686 31.5831395,7.7106422 31.6166079,7.49241648 C31.6500765,7.27419075 31.6668109,7.05036949 31.6668109,6.82654824 C31.6389203,6.33414149 31.499468,5.86411685 31.242876,5.41647435 C30.9862839,4.97442736 30.5790834,4.64988655 30.0101183,4.44844742 C29.8874004,4.40368317 29.7591043,4.37010998 29.6252302,4.34772786 C29.4913562,4.32534573 29.3630601,4.30855913 29.2403422,4.29736807 C28.6211743,4.25260382 28.041053,4.37010998 27.5055565,4.64988655 C26.9644818,4.92966311 26.6019061,5.32694585 26.4178291,5.83054367 C26.3508921,6.02079173 26.3006893,6.22223086 26.2672208,6.42926552 C26.2337522,6.63630017 26.222596,6.84333483 26.2393302,7.04477397 C26.2504864,7.57634945 26.3955167,8.07435173 26.6744212,8.53878084 C26.9477476,9.00320993 27.3884166,9.33334628 27.9964283,9.52359436 L27.9964283,9.50680775 L27.9908503,9.50680775 L27.9908503,9.50680775 Z M17.9726026,10.5084079 C17.4873088,10.9504548 16.9016095,11.2749957 16.2155045,11.4820303 C15.5293995,11.689065 14.7652014,11.7114618 14.0400498,11.7114618 C13.3093202,11.7114618 12.5395439,11.7170426 11.859017,11.510008 C11.1784902,11.3029733 10.5983689,10.984028 10.1130752,10.5531721 C9.6166253,10.1111252 9.30983041,9.47323457 9.05881641,8.85772612 C8.8078024,8.24221767 8.68508445,7.60992264 8.68508445,6.96084099 C8.68508445,6.31175936 8.8078024,5.67946432 9.05881641,5.06395588 C9.30983041,4.44844742 9.59989103,3.84972556 10.0963409,3.40767859 C10.5816347,2.97682267 11.167334,2.65787738 11.853439,2.43965166 C12.5395439,2.22702148 13.3316325,2.18785275 14.0567841,2.18785275 C14.7707795,2.18785275 15.5461338,2.19904381 16.2266607,2.41167401 C16.9127655,2.6243042 17.498465,2.94884502 17.9837587,3.37970093 C18.4802085,3.82174791 18.7870035,4.44844742 19.0380175,5.06395588 C19.2890314,5.67946432 19.4117495,6.31175936 19.4117495,6.96084099 C19.4117495,7.60992264 19.2890314,8.24221767 19.0380175,8.85772612 C18.7870035,9.47323457 18.4690524,10.0831475 17.9726026,10.5251945 L17.9726026,10.5084079 L17.9726026,10.5084079 Z M13.0973528,9.50680775 C13.1921803,9.54038094 13.2814297,9.5683586 13.3706791,9.59074073 C13.4599286,9.61312285 13.5435999,9.62990944 13.6216931,9.64110052 C14.2687515,9.71943795 14.8711851,9.61871838 15.4401501,9.33894182 C16.0035371,9.05916525 16.3828472,8.64509592 16.5725022,8.10792492 C16.6394393,7.91767686 16.6896421,7.7106422 16.7231106,7.49241648 C16.756579,7.27419075 16.7733134,7.05036949 16.7733134,6.82654824 C16.7454229,6.33414149 16.6059708,5.86411685 16.3493786,5.41647435 C16.0927866,4.97442736 15.685586,4.64988655 15.116621,4.44844742 C14.993903,4.40368317 14.865607,4.37010998 14.7317328,4.34772786 C14.5978587,4.32534573 14.4695626,4.30855913 14.3468447,4.29736807 C13.7276768,4.25260382 13.1475556,4.37010998 12.612059,4.64988655 C12.0709844,4.92966311 11.7084086,5.32694585 11.5243317,5.83054367 C11.4573946,6.02079173 11.4071918,6.22223086 11.3737233,6.42926552 C11.3402548,6.63630017 11.3290986,6.84333483 11.3458329,7.04477397 C11.356989,7.57634945 11.5020193,8.07435173 11.7809238,8.53878084 C12.0542501,9.00320993 12.4949192,9.33334628 13.1029309,9.52359436 L13.1029309,9.50680775 L13.0973528,9.50680775 L13.0973528,9.50680775 Z" id="Shape"></path>
                            <polygon id="Shape" points="77.0445641 2.35012316 79.114035 5.11991119 81.233709 2.35012316 84.1622056 2.35012316 80.5978067 6.99441418 84.1120027 11.521199 81.1500376 11.521199 79.1196132 8.85772612 77.0724546 11.521199 74.1272236 11.521199 77.6748881 6.94405441 74.082599 2.35012316"></polygon>
                        </g>
                    </g>
                    <g id="bottom" transform="translate(84.786952, 0.167866)" fill-rule="nonzero">
                        <g id="Group">
                            <path d="M19.0882202,22.7122617 L6.42038034,20.8097811 C7.64198182,20.2949922 10.4310263,18.9744469 12.6009029,17.3349561 C14.7484671,15.712252 16.5334556,13.3509378 17.253029,12.2989779 C17.877775,11.8289533 18.4021154,11.2190404 18.7758473,10.5028123 L20.9066772,6.45164765 C21.4142834,7.52598966 22.3458242,9.74182008 22.8757427,12.5172036 C23.3833487,15.0967436 22.9538359,19.0080199 22.6526191,21.1119398 C21.893999,22.2758103 20.510633,22.9248919 19.0882202,22.7122617 Z" id="Shape" fill="url(#linearGradient-1)"></path>
                            <path d="M12.612059,17.3909114 C10.4366044,19.0248066 7.64755991,20.2893966 6.42595843,20.8097811 C6.38691181,20.8041856 6.31997475,20.7929945 6.31997475,20.7929945 C6.19725679,20.7706124 6.08569501,20.7034661 6.00760176,20.6027464 L0.0446247114,12.9368685 L0.301216802,13.0767568 C0.40720049,13.1327121 0.524340358,13.1606897 0.641480226,13.1662853 L13.928488,13.3789155 C15.1556676,13.4012976 16.3214882,13.0040148 17.2586072,12.2933824 C16.5334556,13.3453423 14.7484671,15.7626118 12.612059,17.3909114 L12.612059,17.3909114 Z" id="Shape" fill="url(#linearGradient-2)"></path>
                            <path d="M23.0375072,20.3397565 C22.9371017,20.619533 22.8088056,20.8769275 22.6470409,21.1203331 C22.9259455,18.9688513 23.3833487,15.0967436 22.8422741,12.5172036 C22.3514024,9.73622454 21.391971,7.55396731 20.9010992,6.46283871 L24.3037335,0.0223821254 L27.0314189,8.85772612 C27.0593093,8.94165908 27.0537313,9.0311876 27.0258407,9.11512056 L23.0375072,20.3397565 Z" id="Shape" fill="url(#linearGradient-3)"></path>
                        </g>
                    </g>
                    <g id="up" transform="translate(85.735227, 0.000000)" fill-rule="nonzero">
                        <g id="Group">
                            <path d="M22.0948102,0.805756515 L21.7991715,1.32614093 C20.5831481,1.25899455 15.9366,1.25899455 11.5633783,4.73381951 C7.97108907,7.58754051 7.00607967,11.2861867 6.77737803,12.5116081 L0.446247114,12.5172036 C0.0892494226,12.5172036 -0.100405601,12.0975388 0.139452223,11.8289533 L7.92088626,3.05516012 C8.34482103,2.57953995 8.91936419,2.25499913 9.54411014,2.14868404 L21.5760479,0.0615508447 C21.9888265,-0.00559553134 22.3011994,0.436451446 22.0948102,0.805756515 Z" id="Shape" fill="url(#linearGradient-4)"></path>
                            <path d="M21.7991715,1.3205454 L17.3645907,9.1207161 L13.2312269,9.3165597 C12.6399495,9.34453734 12.0988749,9.65229158 11.7697676,10.1502939 L10.224637,12.5060126 L6.77737803,12.5060126 C7.00607967,11.2749957 7.97666715,7.57634945 11.5633783,4.72822399 C15.9366,1.25899455 20.5831481,1.25339902 21.7991715,1.3205454 L21.7991715,1.3205454 Z" id="Shape" fill="url(#linearGradient-5)"></path>
                        </g>
                    </g>
                </g>
            </g>
        </g>
    </g>
</svg>