<?xml version="1.0" encoding="utf-8"?>
<!-- Generator: Adobe Illustrator 21.1.0, SVG Export Plug-In . SVG Version: 6.00 Build 0)  -->
<svg version="1.1" id="Layer_1" xmlns="http://www.w3.org/2000/svg" xmlns:xlink="http://www.w3.org/1999/xlink" x="0px" y="0px"
	 viewBox="0 0 187.1 37.8" style="enable-background:new 0 0 187.1 37.8;" xml:space="preserve">
<style type="text/css">
	.st0{fill:#FFFFFF;}
	.st1{opacity:0.5;fill:#FFFFFF;}
	.st2{fill:url(#SVGID_1_);}
	.st3{fill:url(#SVGID_2_);}
	.st4{fill:url(#SVGID_3_);}
	.st5{fill:url(#SVGID_4_);}
	.st6{fill:url(#SVGID_5_);}
	.st7{fill:url(#SVGID_6_);}
	.st8{opacity:0.85;fill:#FFFFFF;}
	.st9{fill:#337ABE;}
	.st10{fill:url(#SVGID_7_);}
	.st11{fill:url(#SVGID_8_);}
</style>
<g>
	<path class="st0" d="M21,13.4c0,0,1.5-0.4,3,0.7S23.1,12.4,21,13.4L21,13.4z"/>
	<path class="st1" d="M24.6,24.7c0,0,2.4,1.1,1.9,5.3C26.5,30.1,29,27.2,24.6,24.7z"/>
	<linearGradient id="SVGID_1_" gradientUnits="userSpaceOnUse" x1="0.2786" y1="18.8385" x2="40.4303" y2="18.8385">
		<stop  offset="0" style="stop-color:#4975BA"/>
		<stop  offset="1" style="stop-color:#31BDEE"/>
	</linearGradient>
	<path class="st2" d="M30.5,15.5c-4.1-7.9-9.1-6.8-14.8-8.7c-3.5-1.2-5.4-4.2-6.3-6.4C4.1,1.3,0.3,5.8,0.3,11.3
		c0,7.6,6.8,13.9,17.3,23.1l2.8,2.8l2.8-2.8c1.3-1.1,2.5-2.2,3.6-3.2c1.7-1.5,1.9-4,0.6-5.9L24.9,22c-0.1-0.2-0.2-0.4-0.2-0.7
		c-2.5,1.2-5.6,0.5-7.4-1.8c-1.9-2.6-1.4-6.3,1.3-8.3c2.6-1.9,6.3-1.4,8.3,1.3c1.7,2.3,1.5,5.5-0.5,7.6c0.2,0.1,0.4,0.2,0.6,0.4
		l1.5,2c0.9,1.2,2.1,1.8,3.4,1.8C32.2,21.7,32.1,18.6,30.5,15.5z"/>
	<linearGradient id="SVGID_2_" gradientUnits="userSpaceOnUse" x1="17.658" y1="16.0342" x2="26.4867" y2="16.0342">
		<stop  offset="0" style="stop-color:#4975BA"/>
		<stop  offset="1" style="stop-color:#31BDEE"/>
	</linearGradient>
	<circle class="st3" cx="22.1" cy="16" r="4.4"/>
	<linearGradient id="SVGID_3_" gradientUnits="userSpaceOnUse" x1="0.2786" y1="12.3046" x2="40.4303" y2="12.3046">
		<stop  offset="0" style="stop-color:#4975BA"/>
		<stop  offset="1" style="stop-color:#31BDEE"/>
	</linearGradient>
	<path class="st4" d="M35.3,22.8c3.3-3.8,5.1-7.4,5.1-11.4c0-6.2-4.8-11-11-11c-3.4,0-6.8,1.6-9,4.2c-2.2-2.6-5.6-4.2-9-4.2
		c-0.7,0-1.3,0.1-1.9,0.2c0.9,2.1,2.8,5.2,6.3,6.4c5.7,1.9,10.6,0.9,14.8,8.7c1.6,3,1.8,6.1,1.4,8.8C33.1,24.3,34.4,23.8,35.3,22.8z
		"/>
	<linearGradient id="SVGID_4_" gradientUnits="userSpaceOnUse" x1="17.293" y1="14.784" x2="40.539" y2="0.8163">
		<stop  offset="7.425743e-02" style="stop-color:#4975BA"/>
		<stop  offset="0.3094" style="stop-color:#497DBF"/>
		<stop  offset="0.3481" style="stop-color:#4880C1"/>
		<stop  offset="0.3963" style="stop-color:#4688C8"/>
		<stop  offset="0.4495" style="stop-color:#4197D2"/>
		<stop  offset="0.5059" style="stop-color:#39ABE2"/>
		<stop  offset="0.5446" style="stop-color:#31BDEE"/>
	</linearGradient>
	<path class="st5" d="M16.8,5.5C13.4,4,12,1.8,11.3,0.3c-0.6,0-1.3,0.1-1.9,0.2c0.9,2.1,2.8,5.2,6.3,6.4c5.7,1.9,10.6,0.9,14.8,8.7
		c1.6,3,1.8,6.1,1.4,8.8c1.3,0,2.5-0.5,3.4-1.6c1-1.2,1.9-2.3,2.6-3.5C35.7,7.1,21.9,7.7,16.8,5.5z"/>
	<linearGradient id="SVGID_5_" gradientUnits="userSpaceOnUse" x1="13.2823" y1="13.6948" x2="47.3257" y2="1.9727">
		<stop  offset="7.425743e-02" style="stop-color:#4975BA"/>
		<stop  offset="0.3094" style="stop-color:#497DBF"/>
		<stop  offset="0.7426" style="stop-color:#31BDEE"/>
	</linearGradient>
	<path class="st6" d="M29.4,0.3c-3.4,0-6.8,1.6-9,4.2c-2.2-2.6-5.6-4.2-9-4.2c0,0,0,0,0,0C12,1.8,13.4,4,16.8,5.5
		c5,2.2,18.9,1.5,21,13.8c1.7-2.6,2.6-5.2,2.6-8C40.4,5.1,35.6,0.3,29.4,0.3z"/>
	<linearGradient id="SVGID_6_" gradientUnits="userSpaceOnUse" x1="22.3849" y1="12.2494" x2="38.978" y2="-6.1792">
		<stop  offset="0" style="stop-color:#4975BA"/>
		<stop  offset="0.2252" style="stop-color:#497DBF"/>
		<stop  offset="0.6188" style="stop-color:#3FC6ED"/>
	</linearGradient>
	<path class="st7" d="M29.4,0.3c-3.4,0-6.8,1.6-9,4.2c-2.2-2.6-5.6-4.2-9-4.2c0,0,0,0,0,0C12,1.8,13.4,4,16.8,5.5
		c5,2.2,18.9,1.5,21,13.8c1.7-2.6,2.6-5.2,2.6-8C40.4,5.1,35.6,0.3,29.4,0.3z"/>
	<path class="st8" d="M21.6,12.2c0,0,3.7,0.5,4.1,5C25.8,17.2,26.6,12.8,21.6,12.2z"/>
</g>
<path class="st9" d="M50.1,27.4v-9.1h-2.3v-2.6h2.3v-0.8c0-3.2,2.2-4.6,4.6-4.6c1.1,0,2.2,0.3,3.1,1l-1.1,2.2
	c-0.6-0.4-1.2-0.6-1.8-0.6c-1,0-1.8,0.7-1.8,2.1v0.8h3.5v2.6H53v9.1H50.1z"/>
<path class="st9" d="M62.1,15.6l0.2,1.4c0.9-1.5,2.2-1.7,3.4-1.7c1.2,0,2.4,0.5,3.1,1.1l-1.3,2.5c-0.6-0.5-1.2-0.8-2.2-0.8
	c-1.6,0-3,0.8-3,3v6.2h-3V15.6H62.1z"/>
<path class="st9" d="M73.6,23.5c0.6,1.3,2.2,1.9,4.2,1.3c1-0.3,2.3-1.2,2.7-2l2.4,1.2c-0.8,1.6-2.6,2.9-4.4,3.4
	c-4,1.3-7.1-0.4-8.2-4c-1.1-3.4,0.5-6.7,4.2-7.9c3.8-1.2,7,0.3,8,5.1L73.6,23.5z M79.1,19.1c-0.7-1.4-2.1-1.8-3.7-1.2
	c-1.5,0.5-2.6,1.6-2.5,3.2L79.1,19.1z"/>
<path class="st9" d="M88.4,23.4c0.6,1.3,2.1,2,4.2,1.4c1.1-0.3,2.3-1.1,2.8-2l2.4,1.2c-0.9,1.6-2.7,2.8-4.4,3.3
	c-4,1.2-7.1-0.6-8.1-4.2c-1-3.5,0.7-6.6,4.4-7.7c3.9-1.1,7,0.5,7.9,5.3L88.4,23.4z M94,19.2c-0.6-1.4-2-1.8-3.7-1.3
	c-1.6,0.5-2.6,1.6-2.6,3.2L94,19.2z"/>
<path class="st9" d="M100.3,15.5v11.9h3V15.5H100.3z"/>
<path class="st9" d="M117,25.9c-1.4,1.3-2.9,1.9-4.7,1.9c-3.5,0-6.4-2.1-6.4-6.3s2.9-6.3,6.4-6.3c1.7,0,3,0.5,4.4,1.8l-1.9,1.9
	c-0.7-0.6-1.6-0.9-2.4-0.9c-2,0-3.5,1.4-3.5,3.5c0,2.3,1.6,3.5,3.4,3.5c1,0,1.9-0.3,2.6-1L117,25.9z"/>
<path class="st9" d="M131.1,21.5c0,3.4-2.4,6.2-6.3,6.2c-3.9,0-6.3-2.8-6.3-6.2c0-3.4,2.4-6.2,6.2-6.2
	C128.7,15.3,131.1,18.1,131.1,21.5z M121.6,21.5c0,1.8,1.1,3.5,3.3,3.5s3.3-1.7,3.3-3.5c0-1.8-1.3-3.5-3.3-3.5
	C122.7,18,121.6,19.7,121.6,21.5z"/>
<path class="st9" d="M142.7,27.4v-6.2c0-1.8-1-3.2-2.9-3.2c-1.8,0-3.1,1.5-3.1,3.3v6h-3V15.6h2.7l0.2,1.6c1.2-1.2,2.4-1.8,4-1.8
	c2.8,0,5.1,2.1,5.1,5.8v6.2H142.7z"/>
<path class="st9" d="M156.7,18.7c-0.9-0.8-1.8-1.1-3-1.1c-1.4,0-2.2,0.4-2.2,1.2c0,0.8,0.7,1.2,2.3,1.3c2.3,0.1,5.2,0.6,5.2,3.8
	c0,2.1-1.7,3.9-5.2,3.9c-1.9,0-3.8-0.3-5.6-2.1l1.5-2.1c0.9,0.9,2.8,1.6,4.2,1.7c1.1,0,2.2-0.6,2.2-1.4c0-0.8-0.7-1.2-2.4-1.2
	c-2.3-0.2-5-1-5-3.7c0-2.7,2.9-3.7,5.1-3.7c1.9,0,3.3,0.4,4.7,1.6L156.7,18.7z"/>
<path class="st9" d="M164.9,25.9c0,2.3-3.5,2.3-3.5,0S164.9,23.6,164.9,25.9z"/>
<path class="st9" d="M170.8,11.5c0,2-3.1,2-3.1,0S170.8,9.5,170.8,11.5z"/>
<path class="st9" d="M168,15.5v11.9h3V15.5H168z"/>
<path class="st9" d="M186.6,21.5c0,3.4-2.4,6.2-6.3,6.2s-6.3-2.8-6.3-6.2c0-3.4,2.4-6.2,6.2-6.2S186.6,18.1,186.6,21.5z M177,21.5
	c0,1.8,1.1,3.5,3.3,3.5s3.3-1.7,3.3-3.5c0-1.8-1.3-3.5-3.3-3.5C178.1,18,177,19.7,177,21.5z"/>
<g>
	<linearGradient id="SVGID_7_" gradientUnits="userSpaceOnUse" x1="100.8584" y1="12.9511" x2="102.8692" y2="10.1834">
		<stop  offset="0" style="stop-color:#4975BA"/>
		<stop  offset="0.448" style="stop-color:#497DBF"/>
		<stop  offset="0.7475" style="stop-color:#3FC6ED"/>
	</linearGradient>
	<path class="st10" d="M100.8,11.8c0.8,0.3,1.7,0.9,3.1,0.4c0.1-0.2,0.1-0.3,0.1-0.5c0-0.7-0.5-1.2-1.2-1.2c-0.5,0-0.8,0.3-1,0.6
		c-0.2-0.4-0.6-0.6-1-0.6c-0.7,0-1.2,0.5-1.2,1.2c0,0.2,0,0.3,0.1,0.4C100,11.8,100.4,11.7,100.8,11.8z"/>
	<linearGradient id="SVGID_8_" gradientUnits="userSpaceOnUse" x1="100.575" y1="13.4781" x2="103.1067" y2="11.1986">
		<stop  offset="0.1584" style="stop-color:#4975BA"/>
		<stop  offset="0.5668" style="stop-color:#31BDEE"/>
		<stop  offset="0.7203" style="stop-color:#2BC4F2"/>
	</linearGradient>
	<path class="st11" d="M101.8,14.4c0,0,1.7-1,2.1-2.3c-1.4,0.5-2.3-0.1-3.1-0.4c-0.4-0.1-0.8,0.1-1.2,0.3
		C100,13.4,101.8,14.4,101.8,14.4z"/>
</g>
</svg>
