<svg width="159" height="141" viewBox="0 0 159 141" fill="none" xmlns="http://www.w3.org/2000/svg">
<g clip-path="url(#clip0)">
<path d="M40.7349 129.658H45.6949V140.754H43.1973V138.499C42.74 140.049 41.755 141 39.8555 141C36.8654 141 35.4935 138.605 35.4935 135.4V125.361C35.4935 122.12 37.0413 119.76 40.7349 119.76C44.6044 119.76 45.73 121.909 45.73 124.973V126.805H42.5289V124.692C42.5289 123.388 42.0364 122.684 40.7701 122.684C39.5037 122.684 38.9761 123.564 38.9761 124.832V135.963C38.9761 137.231 39.5037 138.112 40.6997 138.112C41.8254 138.112 42.4234 137.478 42.4234 136.139V132.476H40.7701V129.658H40.7349Z" fill="#020303"/>
<path d="M47.3834 119.971H50.8659V137.9H55.0168V140.753H47.3834V119.971Z" fill="#020303"/>
<path d="M56.1776 135.4V125.361C56.1776 122.12 57.7606 119.76 61.4542 119.76C65.1477 119.76 66.7659 122.12 66.7659 125.361V135.4C66.7659 138.605 65.1829 141 61.4542 141C57.7606 141 56.1776 138.605 56.1776 135.4ZM63.2482 135.928V124.797C63.2482 123.529 62.6854 122.649 61.419 122.649C60.1878 122.649 59.625 123.529 59.625 124.797V135.928C59.625 137.196 60.1878 138.077 61.419 138.077C62.6854 138.077 63.2482 137.196 63.2482 135.928Z" fill="#020303"/>
<path d="M68.4192 119.971H73.4847C76.9672 119.971 78.128 121.592 78.128 124.515V126.629C78.128 128.39 77.4948 129.482 76.0526 129.94C77.8114 130.327 78.6557 131.49 78.6557 133.392V136.139C78.6557 139.063 77.3541 140.718 73.8364 140.718H68.4192V119.971ZM71.9017 128.742H73.1329C74.2586 128.742 74.7862 128.143 74.7862 127.051V124.515C74.7862 123.388 74.2586 122.825 73.0977 122.825H71.9017V128.742ZM71.9017 131.419V137.9H73.4495C74.6103 137.9 75.1732 137.301 75.1732 136.21V133.075C75.1732 131.983 74.6455 131.384 73.4143 131.384H71.9017V131.419Z" fill="#020303"/>
<path d="M79.3944 140.754L83.2991 120.007H87.2741L91.2139 140.754H87.6258L86.9926 136.949H83.2991L82.701 140.754H79.3944ZM83.7564 134.167H86.5353L85.1634 125.854H85.1283L83.7564 134.167Z" fill="#020303"/>
<path d="M92.3748 119.971H95.8573V137.9H100.043V140.753H92.3748V119.971Z" fill="#020303"/>
<path d="M109.506 129.658H114.466V140.754H111.968V138.499C111.511 140.049 110.526 141 108.627 141C105.637 141 104.265 138.605 104.265 135.4V125.361C104.265 122.12 105.812 119.76 109.506 119.76C113.375 119.76 114.501 121.909 114.501 124.973V126.805H111.3V124.692C111.3 123.388 110.808 122.684 109.541 122.684C108.275 122.684 107.747 123.564 107.747 124.832V135.963C107.747 137.231 108.275 138.112 109.471 138.112C110.597 138.112 111.195 137.478 111.195 136.139V132.476H109.541V129.658H109.506Z" fill="#020303"/>
<path d="M116.154 135.4V125.361C116.154 122.12 117.737 119.76 121.431 119.76C125.125 119.76 126.743 122.12 126.743 125.361V135.4C126.743 138.605 125.16 141 121.431 141C117.737 141 116.154 138.605 116.154 135.4ZM123.225 135.928V124.797C123.225 123.529 122.662 122.649 121.431 122.649C120.2 122.649 119.637 123.529 119.637 124.797V135.928C119.637 137.196 120.2 138.077 121.431 138.077C122.662 138.077 123.225 137.196 123.225 135.928Z" fill="#020303"/>
<path d="M127.376 140.754L131.281 120.007H135.255L139.195 140.754H135.607L134.974 136.949H131.281L130.682 140.754H127.376ZM131.773 134.167H134.552L133.18 125.854H133.145L131.773 134.167Z" fill="#020303"/>
<path d="M140.356 119.971H143.839V137.9H148.025V140.753H140.356V119.971Z" fill="#020303"/>
<path d="M148.975 136.28V133.497H152.211V136.351C152.211 137.513 152.739 138.182 153.935 138.182C155.025 138.182 155.518 137.442 155.518 136.351V135.54C155.518 134.343 155.025 133.603 153.97 132.617L151.929 130.574C149.924 128.601 149.01 127.404 149.01 125.044V124.339C149.01 121.768 150.522 119.76 153.899 119.76C157.382 119.76 158.754 121.486 158.754 124.48V126.171H155.553V124.339C155.553 123.142 154.99 122.578 153.899 122.578C152.914 122.578 152.246 123.142 152.246 124.304V124.727C152.246 125.889 152.879 126.558 153.899 127.545L156.151 129.764C158.05 131.701 158.965 132.863 158.965 135.153V136.174C158.965 139.028 157.452 141.035 153.864 141.035C150.347 141 148.975 138.992 148.975 136.28Z" fill="#020303"/>
<path d="M0 119.971H9.28673V122.825H6.40221V140.753H2.88451V122.825H0V119.971Z" fill="#020303"/>
<path d="M17.4478 131.595H14.0708V140.753H10.5883V119.971H14.0708V128.777H17.4478V119.971H20.9655V140.753H17.4478V131.595Z" fill="#020303"/>
<path d="M22.6539 119.971H30.9909V122.825H26.1716V128.777H29.619V131.595H26.1716V137.9H30.9909V140.753H22.6539V119.971Z" fill="#020303"/>
<path d="M52.7654 37.9358C54.1021 35.6815 55.6851 33.6385 57.5143 31.8069L41.9309 14.6882C37.9911 18.4572 34.6493 22.7897 32.011 27.6153L52.7654 37.9358Z" fill="#63B335"/>
<path d="M90.9677 25.8542C93.3245 26.9461 95.5055 28.3198 97.5106 29.9401L113.129 12.8567C109.013 9.29907 104.335 6.37551 99.2694 4.19165L90.9677 25.8542Z" fill="#E5B735"/>
<path d="M126.743 30.9968L106.023 41.3526C107.008 43.6773 107.712 46.1077 108.099 48.6791L131.14 46.4952C130.471 41.0355 128.959 35.8225 126.743 30.9968Z" fill="#C51C2E"/>
<path d="M104.546 38.3234L125.265 28.0028C122.697 23.2124 119.426 18.8799 115.591 15.1462L99.9729 32.2297C101.732 34.0613 103.28 36.1043 104.546 38.3234Z" fill="#4C9F37"/>
<path d="M48.6497 53.0819C48.6497 52.624 48.6497 52.166 48.6849 51.6729L25.644 49.5947C25.5736 50.7219 25.5385 51.8843 25.5385 53.0466C25.5385 57.4848 26.1013 61.7821 27.1214 65.868L49.3884 59.4573C48.896 57.4496 48.6497 55.3009 48.6497 53.0819Z" fill="#3F7F45"/>
<path d="M101.661 72.0322C100.008 74.04 98.1437 75.8011 96.0331 77.3158L108.204 97.041C112.707 93.9765 116.752 90.2428 120.129 85.9455L101.661 72.0322Z" fill="#FCC310"/>
<path d="M108.415 53.0819C108.415 55.2658 108.169 57.4145 107.747 59.4574L130.014 65.8681C131.034 61.7822 131.562 57.4849 131.562 53.0819C131.562 51.99 131.527 50.8981 131.456 49.8062L108.415 51.99C108.415 52.3423 108.415 52.7297 108.415 53.0819Z" fill="#E8422E"/>
<path d="M55.7907 72.49L37.3579 86.509C40.7701 90.7358 44.8506 94.399 49.3884 97.4283L61.5597 77.7383C59.4139 76.2237 57.4792 74.4625 55.7907 72.49Z" fill="#F59D2D"/>
<path d="M49.0015 48.3619C49.4236 45.7553 50.1624 43.2545 51.2177 40.9297L30.4984 30.574C28.2119 35.4348 26.629 40.7184 25.9254 46.2837L49.0015 48.3619Z" fill="#1896D4"/>
<path d="M105.355 98.8374L93.219 79.1475C91.0029 80.3803 88.646 81.3665 86.1133 82.0358L90.4049 104.825C95.7518 103.593 100.782 101.55 105.355 98.8374Z" fill="#A31B43"/>
<path d="M106.868 62.6628C106.059 65.0228 104.968 67.2771 103.631 69.3201L122.099 83.2686C125.089 78.9361 127.481 74.1457 129.099 69.0383L106.868 62.6628Z" fill="#2EBCE0"/>
<path d="M82.8417 82.7048C81.4346 82.9162 79.9924 83.0218 78.515 83.0218C77.3541 83.0218 76.1933 82.9514 75.0324 82.8105L70.7408 105.6C73.2736 105.988 75.8767 106.164 78.515 106.164C81.4346 106.164 84.3192 105.917 87.0981 105.459L82.8417 82.7048Z" fill="#ED6930"/>
<path d="M80.4497 23.2123C83.0176 23.3884 85.5152 23.8815 87.8369 24.6564L96.1387 3.02916C91.1787 1.26798 85.9022 0.246498 80.4146 0.0351562V23.2123H80.4497Z" fill="#E6243C"/>
<path d="M71.761 82.247C69.1579 81.6482 66.6955 80.6972 64.409 79.4644L52.2378 99.1896C56.9163 101.867 62.0522 103.874 67.4694 105.037L71.761 82.247Z" fill="#DE1868"/>
<path d="M69.5449 24.5156C71.9369 23.7407 74.4696 23.2828 77.1079 23.1771V0C71.5499 0.140894 66.203 1.16238 61.1727 2.88833L69.5449 24.5156Z" fill="#1A496A"/>
<path d="M53.7504 69.8131C52.273 67.6292 51.077 65.2693 50.2327 62.7332L28.0009 69.1086C29.6894 74.4274 32.1869 79.3587 35.3528 83.8321L53.7504 69.8131Z" fill="#C99A2D"/>
<path d="M60.0119 29.5878C61.9818 28.038 64.1276 26.7347 66.4141 25.7132L58.042 4.08594C53.0469 6.16413 48.4738 9.01724 44.3933 12.4692L60.0119 29.5878Z" fill="#02699E"/>
</g>
<defs>
<clipPath id="clip0">
<rect width="159" height="141" fill="white"/>
</clipPath>
</defs>
</svg>
