<svg xmlns="http://www.w3.org/2000/svg" width="100%" height="100%" viewBox="0 0 95 36">
  <g fill="none" fill-rule="evenodd" transform="translate(0 2)">
    <path fill="#3D474D" fill-rule="nonzero" d="M39,10.728 L41.352,10.728 L41.352,12.8 L41.408,12.8 C41.4640003,12.6133324 41.6086655,12.3800014 41.842,12.1 C42.0753345,11.8199986 42.3739982,11.5540013 42.738,11.302 C43.1020018,11.0499987 43.5313309,10.8353342 44.026,10.658 C44.5206691,10.4806658 45.0666637,10.392 45.664,10.392 C46.6533383,10.392 47.4839966,10.5973313 48.156,11.008 C48.8280034,11.4186687 49.3786645,12.0346626 49.808,12.856 C50.2373355,12.0346626 50.8439961,11.4186687 51.628,11.008 C52.4120039,10.5973313 53.2053293,10.392 54.008,10.392 C55.0346718,10.392 55.8746634,10.5599983 56.528,10.896 C57.1813366,11.2320017 57.6946648,11.6753306 58.068,12.226 C58.4413352,12.7766694 58.6979993,13.4019965 58.838,14.102 C58.9780007,14.8020035 59.048,15.5253296 59.048,16.272 L59.048,24 L56.528,24 L56.528,16.608 C56.528,16.1039975 56.4953337,15.618669 56.43,15.152 C56.3646663,14.685331 56.2293344,14.2746684 56.024,13.92 C55.8186656,13.5653316 55.5293352,13.2806677 55.156,13.066 C54.7826648,12.8513323 54.2880031,12.744 53.672,12.744 C52.4586606,12.744 51.5906693,13.1173296 51.068,13.864 C50.5453307,14.6106704 50.284,15.5719941 50.284,16.748 L50.284,24 L47.764,24 L47.764,17.056 C47.764,16.4213302 47.7313337,15.8426693 47.666,15.32 C47.6006663,14.7973307 47.470001,14.3446686 47.274,13.962 C47.077999,13.5793314 46.7980018,13.2806677 46.434,13.066 C46.0699982,12.8513323 45.5800031,12.744 44.964,12.744 C44.5159978,12.744 44.0820021,12.8326658 43.662,13.01 C43.2419979,13.1873342 42.8733349,13.4533316 42.556,13.808 C42.2386651,14.1626684 41.9866676,14.6153306 41.8,15.166 C41.6133324,15.7166694 41.52,16.3653296 41.52,17.112 L41.52,24 L39,24 L39,10.728 Z M61.780333,10.728 L64.300333,10.728 L64.300333,24 L61.780333,24 L61.780333,10.728 Z M61.192333,5.968 C61.192333,5.46399748 61.3743312,5.03000182 61.738333,4.666 C62.1023348,4.30199818 62.5363305,4.12 63.040333,4.12 C63.5443355,4.12 63.9783312,4.30199818 64.342333,4.666 C64.7063348,5.03000182 64.888333,5.46399748 64.888333,5.968 C64.888333,6.47200252 64.7063348,6.90599818 64.342333,7.27 C63.9783312,7.63400182 63.5443355,7.816 63.040333,7.816 C62.5363305,7.816 62.1023348,7.63400182 61.738333,7.27 C61.3743312,6.90599818 61.192333,6.47200252 61.192333,5.968 Z M67.032666,10.728 L69.552666,10.728 L69.552666,12.772 L69.608666,12.772 C69.9260009,12.0626631 70.4766621,11.4886689 71.260666,11.05 C72.0446699,10.6113311 72.9499942,10.392 73.976666,10.392 C74.6113358,10.392 75.2226631,10.489999 75.810666,10.686 C76.3986689,10.882001 76.9119971,11.1853313 77.350666,11.596 C77.7893349,12.0066687 78.1393314,12.5339968 78.400666,13.178 C78.6620006,13.8220032 78.792666,14.5826623 78.792666,15.46 L78.792666,24 L76.272666,24 L76.272666,16.16 C76.272666,15.5439969 76.1886668,15.0166689 76.020666,14.578 C75.8526652,14.1393311 75.6286674,13.784668 75.348666,13.514 C75.0686646,13.243332 74.7466678,13.0473339 74.382666,12.926 C74.0186642,12.8046661 73.640668,12.744 73.248666,12.744 C72.7259967,12.744 72.2406682,12.8279992 71.792666,12.996 C71.3446638,13.1640008 70.9526677,13.4299982 70.616666,13.794 C70.2806643,14.1580018 70.0193336,14.6199972 69.832666,15.18 C69.6459984,15.7400028 69.552666,16.4026628 69.552666,17.168 L69.552666,24 L67.032666,24 L67.032666,10.728 Z M94.628999,24 L92.108999,24 L92.108999,22.096 L92.052999,22.096 C91.5676632,22.8053369 90.9003366,23.355998 90.050999,23.748 C89.2016614,24.140002 88.3290035,24.336 87.432999,24.336 C86.4063272,24.336 85.4776698,24.1586684 84.646999,23.804 C83.8163282,23.4493316 83.1070019,22.9546698 82.518999,22.32 C81.9309961,21.6853302 81.4783339,20.9480042 81.160999,20.108 C80.8436641,19.2679958 80.684999,18.3533383 80.684999,17.364 C80.684999,16.3746617 80.8436641,15.4553376 81.160999,14.606 C81.4783339,13.7566624 81.9309961,13.0193365 82.518999,12.394 C83.1070019,11.7686635 83.8163282,11.2786684 84.646999,10.924 C85.4776698,10.5693316 86.4063272,10.392 87.432999,10.392 C88.3850038,10.392 89.2809948,10.5926647 90.120999,10.994 C90.9610032,11.3953353 91.6049968,11.9413299 92.052999,12.632 L92.108999,12.632 L92.108999,2.832 L94.628999,2.832 L94.628999,24 Z M87.740999,21.984 C88.4130024,21.984 89.019663,21.8673345 89.560999,21.634 C90.102335,21.4006655 90.5596638,21.0833353 90.932999,20.682 C91.3063342,20.2806647 91.5956646,19.7953362 91.800999,19.226 C92.0063334,18.6566638 92.108999,18.0360034 92.108999,17.364 C92.108999,16.6919966 92.0063334,16.0713362 91.800999,15.502 C91.5956646,14.9326638 91.3063342,14.4473353 90.932999,14.046 C90.5596638,13.6446647 90.102335,13.3273345 89.560999,13.094 C89.019663,12.8606655 88.4130024,12.744 87.740999,12.744 C87.0689956,12.744 86.462335,12.8606655 85.920999,13.094 C85.379663,13.3273345 84.9223342,13.6446647 84.548999,14.046 C84.1756638,14.4473353 83.8863334,14.9326638 83.680999,15.502 C83.4756646,16.0713362 83.372999,16.6919966 83.372999,17.364 C83.372999,18.0360034 83.4756646,18.6566638 83.680999,19.226 C83.8863334,19.7953362 84.1756638,20.2806647 84.548999,20.682 C84.9223342,21.0833353 85.379663,21.4006655 85.920999,21.634 C86.462335,21.8673345 87.0689956,21.984 87.740999,21.984 Z"/>
    <path fill="#3D474D" d="M0.103704557,3.33964011 L1.09358565,3.33964011 C1.15086009,3.33964011 1.19729021,3.38607022 1.19729021,3.44334466 L1.19729021,3.89365166 C1.2527205,3.8153062 1.30815005,3.73696191 1.38020954,3.65861645 C1.45226904,3.58027099 1.53818483,3.51032074 1.63795952,3.44876359 C1.7377342,3.38720645 1.85136477,3.33684226 1.97885465,3.29766953 C2.10634452,3.2584968 2.24491839,3.23891073 2.39458041,3.23891073 C2.67727535,3.23891073 2.92809405,3.29766895 3.14704405,3.41518714 C3.36599405,3.53270533 3.53089695,3.717374 3.64175771,3.96919869 C3.78587669,3.70618179 3.96047977,3.51871511 4.16557217,3.40679302 C4.37066458,3.29487094 4.62286902,3.23891073 4.92219307,3.23891073 C5.19380193,3.23891073 5.42244881,3.2850779 5.60814058,3.37741362 C5.79383235,3.46974934 5.94072065,3.5956598 6.04880989,3.75514877 C6.15689913,3.91463774 6.2345005,4.10210442 6.28161632,4.31755444 C6.32873214,4.53300445 6.3522897,4.76384029 6.3522897,5.01006888 L6.3522897,7.31547516 C6.3522897,7.37274961 6.30585959,7.41917972 6.24858514,7.41917972 L5.20881696,7.41917972 C5.15154252,7.41917972 5.1051124,7.37274961 5.1051124,7.31547516 L5.1051124,5.04364534 C5.1051124,4.85337779 5.06492598,4.6896942 4.98455193,4.55258964 C4.90417788,4.41548509 4.7614468,4.34693384 4.55635439,4.34693384 C4.41223541,4.34693384 4.29167614,4.37071692 4.19467298,4.41828381 C4.09766981,4.4658507 4.02006845,4.53160394 3.96186655,4.6155455 C3.90366465,4.69948706 3.86209249,4.79741742 3.83714882,4.9093395 C3.81220515,5.02126159 3.7997335,5.13877802 3.7997335,5.26189231 L3.7997335,7.31547516 C3.7997335,7.37274961 3.75330339,7.41917972 3.69602894,7.41917972 L2.65626076,7.41917972 C2.59898631,7.41917972 2.5525562,7.37274961 2.5525562,7.31547516 L2.5525562,5.26189231 C2.5525562,5.18914295 2.54978472,5.09960663 2.54424169,4.99328065 C2.53869865,4.88695467 2.51929831,4.7862263 2.48604008,4.69109253 C2.45278185,4.59595876 2.39873804,4.51481646 2.32390703,4.44766321 C2.24907602,4.38050996 2.13960266,4.34693384 1.99548368,4.34693384 C1.83473558,4.34693384 1.70447614,4.37631294 1.60470146,4.43507204 C1.50492677,4.49383113 1.42871115,4.57217542 1.37605228,4.67010724 C1.32339342,4.76803907 1.28874996,4.87856047 1.27212084,5.00167476 C1.25549173,5.12478906 1.2471773,5.25349752 1.2471773,5.38780403 L1.2471773,7.31547516 C1.2471773,7.37274961 1.20074719,7.41917972 1.14347274,7.41917972 L0.103704557,7.41917972 C0.0464301116,7.41917972 2.08918844e-17,7.37274961 1.38777878e-17,7.31547516 L0,3.44334466 C1.84208665e-17,3.38607022 0.0464301116,3.33964011 0.103704557,3.33964011 Z M10.7410276,6.79948023 C10.6900458,6.85803924 10.6480969,6.9030308 10.6151809,6.93445493 C10.4544665,7.08788518 10.2684537,7.21308495 10.0571399,7.31005623 C9.75227281,7.44995884 9.43632439,7.51990909 9.10928515,7.51990909 C8.79887503,7.51990909 8.50648416,7.46954491 8.23210379,7.36881503 C7.95772341,7.26808515 7.71937635,7.12398763 7.51705547,6.93651814 C7.31473459,6.74904865 7.15537464,6.52380883 7.03897084,6.26079193 C6.92256704,5.99777503 6.86436602,5.70398396 6.86436602,5.37940991 C6.86436602,5.05483586 6.92256704,4.7610448 7.03897084,4.4980279 C7.15537464,4.235011 7.31473459,4.00977118 7.51705547,3.82230169 C7.71937635,3.63483219 7.95772341,3.49073467 8.23210379,3.39000479 C8.50648416,3.28927492 8.79887503,3.23891073 9.10928515,3.23891073 C9.39752312,3.23891073 9.65942774,3.28927492 9.89500685,3.39000479 C10.130586,3.49073467 10.3301323,3.63483219 10.493652,3.82230169 C10.6571716,4.00977118 10.7832738,4.235011 10.8719624,4.4980279 C10.960651,4.7610448 11.0049946,5.05483586 11.0049946,5.37940991 L11.0049946,5.63566055 C11.0049946,5.71202647 10.9430878,5.77393329 10.8667219,5.77393329 L8.11154331,5.77393329 C8.16143066,6.01456577 8.26951827,6.20622947 8.43580941,6.34893013 C8.60210055,6.49163079 8.80718988,6.56298005 9.05108355,6.56298005 C9.25617595,6.56298005 9.42939329,6.51681288 9.57074075,6.42447716 C9.65799274,6.36747949 9.73837958,6.3003538 9.81190213,6.22309924 C9.82992443,6.20416213 9.85236285,6.17824023 9.87921739,6.14533355 L9.87909053,6.14523003 C9.91415624,6.10226164 9.97679326,6.09442192 10.0213673,6.12742251 L10.7244644,6.64753712 C10.7706482,6.68172948 10.7803692,6.74688724 10.7461768,6.79307104 C10.7445456,6.79527444 10.7428278,6.7974125 10.7410276,6.79948023 Z M23.9458574,6.79948023 C23.8948756,6.85803924 23.8529267,6.9030308 23.8200107,6.93445493 C23.6592963,7.08788518 23.4732835,7.21308495 23.2619697,7.31005623 C22.9571026,7.44995884 22.6411542,7.51990909 22.314115,7.51990909 C22.0037048,7.51990909 21.711314,7.46954491 21.4369336,7.36881503 C21.1625532,7.26808515 20.9242062,7.12398763 20.7218853,6.93651814 C20.5195644,6.74904865 20.3602044,6.52380883 20.2438006,6.26079193 C20.1273968,5.99777503 20.0691958,5.70398396 20.0691958,5.37940991 C20.0691958,5.05483586 20.1273968,4.7610448 20.2438006,4.4980279 C20.3602044,4.235011 20.5195644,4.00977118 20.7218853,3.82230169 C20.9242062,3.63483219 21.1625532,3.49073467 21.4369336,3.39000479 C21.711314,3.28927492 22.0037048,3.23891073 22.314115,3.23891073 C22.6023529,3.23891073 22.8642575,3.28927492 23.0998367,3.39000479 C23.3354158,3.49073467 23.5349621,3.63483219 23.6984818,3.82230169 C23.8620014,4.00977118 23.9881036,4.235011 24.0767922,4.4980279 C24.1654808,4.7610448 24.2098245,5.05483586 24.2098245,5.37940991 L24.2098245,5.63566055 C24.2098245,5.71202647 24.1479176,5.77393329 24.0715517,5.77393329 L21.3163731,5.77393329 C21.3662605,6.01456577 21.4743481,6.20622947 21.6406392,6.34893013 C21.8069304,6.49163079 22.0120197,6.56298005 22.2559134,6.56298005 C22.4610058,6.56298005 22.6342231,6.51681288 22.7755706,6.42447716 C22.8628226,6.36747949 22.9432094,6.3003538 23.0167319,6.22309924 C23.0347542,6.20416213 23.0571927,6.17824023 23.0840472,6.14533355 L23.0839203,6.14523003 C23.1189861,6.10226164 23.1816231,6.09442192 23.2261971,6.12742251 L23.9292942,6.64753712 C23.975478,6.68172948 23.985199,6.74688724 23.9510067,6.79307104 C23.9493754,6.79527444 23.9476576,6.7974125 23.9458574,6.79948023 Z M9.75781735,4.91773362 C9.76336039,4.70508166 9.69407345,4.523211 9.54995446,4.37211618 C9.40583548,4.22102137 9.22014649,4.14547509 8.99288194,4.14547509 C8.85430599,4.14547509 8.73236098,4.16785917 8.62704326,4.21262801 C8.52172554,4.25739684 8.43165253,4.31475605 8.35682152,4.38470735 C8.2819905,4.45465866 8.22378948,4.53580095 8.18221669,4.62813667 C8.14064391,4.72047239 8.11708635,4.81700374 8.11154331,4.91773362 L9.75781735,4.91773362 Z M11.6374357,3.33964011 L12.6772039,3.33964011 C12.7344784,3.33964011 12.7809085,3.38607022 12.7809085,3.44334466 L12.7809085,7.31547516 C12.7809085,7.37274961 12.7344784,7.41917972 12.6772039,7.41917972 L11.6374357,7.41917972 C11.5801613,7.41917972 11.5337312,7.37274961 11.5337312,7.31547516 L11.5337312,3.44334466 C11.5337312,3.38607022 11.5801613,3.33964011 11.6374357,3.33964011 Z M12.1599787,2.96363316 C11.7581626,2.96363316 11.4324263,2.63446141 11.4324263,2.22840749 C11.4324263,1.82235356 11.7581626,1.49318182 12.1599787,1.49318182 C12.5617947,1.49318182 12.887531,1.82235356 12.887531,2.22840749 C12.887531,2.63446141 12.5617947,2.96363316 12.1599787,2.96363316 Z M15.7207921,4.53999847 C15.5378718,4.31055819 15.2967533,4.19583978 14.9974292,4.19583978 C14.8921115,4.19583978 14.7895669,4.22102187 14.6897922,4.27138681 C14.5900175,4.32175175 14.5401309,4.40849006 14.5401309,4.53160435 C14.5401309,4.63233423 14.5914032,4.7064815 14.6939494,4.75404839 C14.7964956,4.80161527 14.9267551,4.84358543 15.0847317,4.8799601 C15.2427082,4.91633478 15.4117684,4.95550692 15.5919171,4.99747771 C15.7720658,5.03944849 15.9411259,5.10520173 16.0991025,5.19473939 C16.2570791,5.28427706 16.3873385,5.4059905 16.4898847,5.55988337 C16.5924309,5.71377624 16.6437033,5.91942999 16.6437033,6.17685078 C16.6437033,6.43986768 16.586888,6.65671347 16.4732557,6.82739465 C16.3596234,6.99807583 16.2141209,7.13517833 16.0367437,7.23870626 C15.8593664,7.34223419 15.6598201,7.41498245 15.4380986,7.45695323 C15.216377,7.49892401 14.9974303,7.51990909 14.7812518,7.51990909 C14.4985569,7.51990909 14.2130947,7.47933794 13.9248568,7.39819443 C13.6366188,7.31705092 13.3927288,7.1729534 13.1931794,6.96589754 L13.9498003,6.11809198 C14.0662041,6.26359069 14.1950778,6.37411209 14.3364253,6.4496595 C14.4777727,6.52520691 14.6426756,6.56298005 14.8311389,6.56298005 C14.9752579,6.56298005 15.1055174,6.54199497 15.2219212,6.50002419 C15.338325,6.45805341 15.396526,6.38110813 15.396526,6.26918604 C15.396526,6.16286006 15.3452536,6.08311677 15.2427074,6.02995378 C15.1401612,5.97679079 15.0099018,5.93202263 14.8519252,5.89564795 C14.6939486,5.85927327 14.5248885,5.82010113 14.3447398,5.77813035 C14.1645911,5.73615957 13.9955309,5.67320434 13.8375544,5.58926277 C13.6795778,5.50532121 13.5493183,5.38640578 13.4467721,5.23251291 C13.3442259,5.07862004 13.2929536,4.8729663 13.2929536,4.6155455 C13.2929536,4.37491302 13.3414545,4.16786026 13.4384576,3.99438103 C13.5354608,3.8209018 13.6629487,3.67820328 13.8209253,3.5662812 C13.9789019,3.45435911 14.1604337,3.37181781 14.3655261,3.31865482 C14.5706185,3.26549183 14.7784793,3.23891073 14.9891147,3.23891073 C15.2551805,3.23891073 15.5240139,3.27808288 15.7956227,3.35642834 C16.0672316,3.43477379 16.2972642,3.5746743 16.4857275,3.77613406 L15.7207921,4.53999847 Z M19.6877764,4.34693384 L18.6939649,4.34693384 L18.6939649,5.70678037 C18.6939649,5.81870246 18.6995079,5.92082983 18.710594,6.01316555 C18.72168,6.10550127 18.7466233,6.18524456 18.7854246,6.25239781 C18.8242259,6.31955106 18.8838126,6.37131425 18.9641867,6.40768893 C19.0445607,6.44406361 19.1512626,6.46225067 19.2842955,6.46225067 C19.350812,6.46225067 19.4381135,6.45525565 19.5462027,6.44126539 C19.5791299,6.43700354 19.6140824,6.42797053 19.6510603,6.41416635 L19.6509039,6.41374753 C19.7047927,6.39363033 19.7647864,6.42100762 19.7849037,6.47489642 C19.7892533,6.48654813 19.7914809,6.49888472 19.7914809,6.51132184 L19.7915411,7.3160312 C19.7915411,7.36247464 19.7606798,7.40326185 19.7159856,7.41588783 C19.564084,7.45879954 19.4451309,7.48507918 19.3591262,7.49472675 C19.2094641,7.51151506 19.0625758,7.51990909 18.9184568,7.51990909 C18.7078214,7.51990909 18.513818,7.49752501 18.3364408,7.45275618 C18.1590636,7.40798734 18.0038608,7.33663808 17.8708279,7.23870626 C17.737795,7.14077443 17.6338646,7.01346497 17.5590336,6.85677405 C17.4842026,6.70008313 17.4467876,6.50981844 17.4467876,6.28597427 L17.4467876,4.34693384 L16.7522987,4.34693384 C16.6950243,4.34693384 16.6485942,4.30050373 16.6485942,4.24322928 L16.6485942,3.44334466 C16.6485942,3.38607022 16.6950243,3.33964011 16.7522987,3.33964011 L17.4467876,3.33964011 L17.4467876,2.23459219 C17.4467876,2.17731774 17.4932177,2.13088763 17.5504922,2.13088763 L18.5902604,2.13088763 C18.6475348,2.13088763 18.6939649,2.17731774 18.6939649,2.23459219 L18.6939649,3.33964011 L19.6877764,3.33964011 C19.7450508,3.33964011 19.7914809,3.38607022 19.7914809,3.44334466 L19.7914809,4.24322928 C19.7914809,4.30050373 19.7450508,4.34693384 19.6877764,4.34693384 Z M22.9475731,4.91773362 C22.9531162,4.70508166 22.8838292,4.523211 22.7397103,4.37211618 C22.5955913,4.22102137 22.4099023,4.14547509 22.1826377,4.14547509 C22.0440618,4.14547509 21.9221168,4.16785917 21.8167991,4.21262801 C21.7114813,4.25739684 21.6214083,4.31475605 21.5465773,4.38470735 C21.4717463,4.45465866 21.4135453,4.53580095 21.3719725,4.62813667 C21.3303997,4.72047239 21.3068421,4.81700374 21.3012991,4.91773362 L22.9475731,4.91773362 Z M24.8105313,3.33964011 L25.8502995,3.33964011 C25.9075739,3.33964011 25.954004,3.38607022 25.954004,3.44334466 L25.954004,3.99438103 L25.9706331,3.99438103 C26.103666,3.74255634 26.2616402,3.55369065 26.4445604,3.42777831 C26.6274807,3.30186596 26.8575133,3.23891073 27.1346652,3.23891073 C27.2067247,3.23891073 27.2787831,3.24170874 27.3508426,3.24730485 C27.3815179,3.24968708 27.4197268,3.25511159 27.4654691,3.26357839 L27.4654859,3.26348777 C27.5146895,3.27259523 27.550391,3.31551145 27.550391,3.36555081 L27.5505483,4.29591044 C27.5505483,4.35327175 27.5040477,4.39977227 27.4466864,4.39977227 C27.4382235,4.39977227 27.4297922,4.3987379 27.4215802,4.39669218 C27.3667174,4.38302504 27.3223519,4.37343402 27.2884838,4.36791912 C27.2025667,4.35392886 27.1124936,4.34693384 27.018262,4.34693384 C26.7799114,4.34693384 26.5914509,4.38050996 26.452875,4.44766321 C26.314299,4.51481646 26.2075971,4.6085498 26.1327661,4.72886604 C26.0579351,4.84918229 26.0094343,4.99327981 25.9872621,5.16116294 C25.96509,5.32904606 25.954004,5.51371474 25.954004,5.71517449 L25.954004,7.31547516 C25.954004,7.37274961 25.9075739,7.41917972 25.8502995,7.41917972 L24.8105313,7.41917972 C24.7532569,7.41917972 24.7068267,7.37274961 24.7068267,7.31547516 L24.7068267,3.44334466 C24.7068267,3.38607022 24.7532569,3.33964011 24.8105313,3.33964011 Z" opacity=".3" transform="translate(39 25)"/>
    <path fill="#F7578C" d="M19.9978604,1.05457478 C31.5962188,4.16759596 33.6583755,9.76840829 30.9202182,20.0046146 C28.182061,30.2408209 23.6004979,34.0584464 12.0021396,30.9454252 C0.403781249,27.832404 -1.65837547,22.2315917 1.07978177,11.9953854 C3.817939,1.75917906 8.3995021,-2.05844639 19.9978604,1.05457478 Z"/>
    <path fill="#FFF" d="M3.01357681,11.1746032 C1.54183651,8.09304546 1.47500454,5.07092644 3.27296549,3.27296549 C5.07092644,1.47500454 8.09304546,1.54183651 11.1746032,3.01357681 C14.2561609,1.54183651 17.2782799,1.47500454 19.0762409,3.27296549 C20.8742018,5.07092644 20.8073698,8.09304546 19.3356295,11.1746032 C20.8073698,14.2561609 20.8742018,17.2782799 19.0762409,19.0762409 C17.2782799,20.8742018 14.2561609,20.8073698 11.1746032,19.3356295 C8.09304546,20.8073698 5.07092644,20.8742018 3.27296549,19.0762409 C1.47500454,17.2782799 1.54183651,14.2561609 3.01357681,11.1746032 Z M4.45796849,8.75207162 C5.03061803,7.95515432 5.69195143,7.1752897 6.43362057,6.43362057 C7.1752897,5.69195143 7.95515432,5.03061803 8.75207162,4.45796849 C7.07868768,3.95072223 5.64489185,4.06169421 4.85329303,4.85329303 C4.06169421,5.64489185 3.95072223,7.07868768 4.45796849,8.75207162 Z M17.8912379,13.5971347 C17.3185883,14.394052 16.6572549,15.1739167 15.9155858,15.9155858 C15.1739167,16.6572549 14.394052,17.3185883 13.5971347,17.8912379 C15.2705187,18.3984841 16.7043145,18.2875121 17.4959133,17.4959133 C18.2875121,16.7043145 18.3984841,15.2705187 17.8912379,13.5971347 Z M4.45796849,13.5971347 C3.95072223,15.2705187 4.06169421,16.7043145 4.85329303,17.4959133 C5.64489185,18.2875121 7.07868768,18.3984841 8.75207162,17.8912379 C7.95515432,17.3185883 7.1752897,16.6572549 6.43362057,15.9155858 C5.69195143,15.1739167 5.03061803,14.394052 4.45796849,13.5971347 Z M5.54454992,11.1746032 C6.16864691,12.236581 6.99599105,13.3173012 8.0139481,14.3352582 C9.03190516,15.3532153 10.1126254,16.1805594 11.1746032,16.8046564 C12.236581,16.1805594 13.3173012,15.3532153 14.3352582,14.3352582 C15.3532153,13.3173012 16.1805594,12.236581 16.8046564,11.1746032 C16.1805594,10.1126254 15.3532153,9.03190516 14.3352582,8.0139481 C13.3173012,6.99599105 12.236581,6.16864691 11.1746032,5.54454992 C10.1126254,6.16864691 9.03190516,6.99599105 8.0139481,8.0139481 C6.99599105,9.03190516 6.16864691,10.1126254 5.54454992,11.1746032 Z M13.5971347,4.45796849 C14.394052,5.03061803 15.1739167,5.69195143 15.9155858,6.43362057 C16.6572549,7.1752897 17.3185883,7.95515432 17.8912379,8.75207162 C18.3984841,7.07868768 18.2875121,5.64489185 17.4959133,4.85329303 C16.7043145,4.06169421 15.2705187,3.95072223 13.5971347,4.45796849 Z" transform="translate(5 5)"/>
  </g>
</svg>
