<svg enable-background="new 0 0 359.9 66.8" viewBox="0 0 359.9 66.8" xmlns="http://www.w3.org/2000/svg"><g fill="#ff0065"><path d="m359.9 65.5c0 .7-.6 1.3-1.3 1.3h-64.1c-.7 0-1.3-.6-1.3-1.3v-64.2c0-.7.6-1.3 1.3-1.3h64.1c.7 0 1.3.6 1.3 1.3z"/><path d="m66.8 65.5c0 .7-.6 1.3-1.3 1.3h-64.2c-.7 0-1.3-.6-1.3-1.3v-64.2c0-.7.6-1.3 1.3-1.3h64.1c.7 0 1.3.6 1.3 1.3v64.2z"/><path d="m213.4 2c0-1.1-.9-2-2-2h-62.8c-1.1 0-2 .9-2 2v62.8c0 1.1.9 2 2 2h46.8l18-18z"/><path d="m140.1 65.5c0 .7-.6 1.3-1.3 1.3h-64.2c-.7 0-1.3-.6-1.3-1.3v-64.2c0-.7.6-1.3 1.3-1.3h64.1c.7 0 1.3.6 1.3 1.3v64.2z"/><path d="m286.6 65.5c0 .7-.6 1.3-1.3 1.3h-64.1c-.7 0-1.3-.6-1.3-1.3v-64.2c0-.7.6-1.3 1.3-1.3h64.1c.7 0 1.3.6 1.3 1.3z"/></g><path d="m180.9 22.8c1 0 2.4.2 3 .4 2.2.5 3.9 1.7 5.1 3.6 1.9 3.1 1.5 7.6-1.8 9.8-.4.2-.7.5-1.1.8.1.2 3.1 4.9 4.2 6.5.2.2 0 .6-.3.6h-6.6c-.3 0-.5-.1-.7-.4l-3.5-5.5h-2.8v5.1c0 .4-.4.8-.8.8h-5c-.4 0-.8-.4-.8-.8v-20c0-.4.4-.8.8-.8h10.3zm-4.5 10.4h4.5c.4 0 .8-.1 1.2-.3.9-.4 1.3-1.2 1.3-2.2 0-1.1-.4-1.6-1.2-2.1-.5-.3-1-.4-1.5-.4-1.4 0-2.9 0-4.3 0z" fill="#fff"/><path d="m46.5 23.5v20.1c0 .4-.3.7-.7.7h-5.2c-.4 0-.7-.3-.7-.7 0-2.4 0-9.7 0-10-2.1 2.9-4.3 5.8-6.4 8.9-.4-.6-6.3-8.8-6.6-9.3v10.5c0 .4-.3.7-.7.7h-5.2c-.4 0-.7-.3-.7-.7v-20.2c0-.4.3-.7.7-.7h4.6c.2 0 .4.1.6.3l7.1 9.8 7.2-9.8c.1-.2.4-.3.6-.3h4.7c.3 0 .7.3.7.7" fill="#fff"/><path d="m117.3 22.8c.4 0 .8.3.8.8v11.3c-.1 2.6-.9 5.1-2.9 7-1.6 1.6-3.6 2.4-5.8 2.8-1.3.2-2.7.3-4 .2-2.8-.2-5.4-1.1-7.4-3.2-1.3-1.4-2.1-3.1-2.4-5.1-.2-1-.2-2.1-.2-3.1 0-2.5 0-7.8 0-9.8 0-.4.4-.8.8-.8h4.9c.4 0 .8.3.8.8v9.7c0 1.1.1 2.3.5 3.3.4.9.9 1.6 1.8 2.1 1.2.6 2.4.7 3.7.4 1.7-.3 2.8-1.3 3.2-3 .2-.6.2-1.2.2-1.8 0-2.8 0-8.6 0-10.7 0-.4.3-.8.8-.8h5.2z" fill="#fff"/><path d="m256.4 22.8 9.6 20.9c.1.3-.1.7-.4.7h-5.8c-.4 0-.7-.2-.9-.6l-.9-2.2h-9.3l-.9 2.2c-.2.4-.5.6-.9.6h-5.8c-.4 0-.6-.4-.4-.7l9.7-20.9zm-.9 13.6-2.3-6-2.3 6z" fill="#fff"/><path d="m324.8 23.6v15.2h9.1c.4 0 .8.4.8.8v4c0 .4-.4.8-.8.8h-14.9c-.4 0-.8-.4-.8-.8v-20c0-.4.4-.8.8-.8h4.9c.6 0 .9.3.9.8" fill="#fff"/><path d="m178.6 66.8 17.3-17.4h16.9l-17.4 17.4z" fill="#b0044b"/><path d="m213.4 48.8h-16c-1.1 0-2 .9-2 2v16z" fill="#ff5ba0"/></svg>